<svg width="24" height="24" viewBox="0 0 24 24" fill="none" xmlns="http://www.w3.org/2000/svg">
<g id="alarm-clock-time-loading 1" clip-path="url(#clip0_1_278)">
<g id="Group">
<path id="Vector" d="M9.705 6.45797C12.7667 5.1903 16.2763 6.6446 17.5439 9.70625C18.8116 12.7679 17.3573 16.2775 14.2956 17.5452C11.2352 18.8123 7.72687 17.3597 6.45799 14.3C5.18862 11.239 6.64098 7.72862 9.70191 6.45925C9.70294 6.45883 9.70398 6.4584 9.705 6.45797Z" stroke="#323232" stroke-width="1.5" stroke-linecap="round" stroke-linejoin="round"/>
<path id="Vector_2" d="M11.812 9.323V12.423L14.249 13.909" stroke="#323232" stroke-width="1.5" stroke-linecap="round" stroke-linejoin="round"/>
<path id="Vector_3" d="M12 3C16.9706 3 21 7.02944 21 12C21 16.9706 16.9706 21 12 21" stroke="#323232" stroke-width="1.5" stroke-linecap="round" stroke-linejoin="round"/>
<path id="Vector_4" d="M8.92501 20.4491C7.93849 20.0919 7.02202 19.565 6.21701 18.8921" stroke="#323232" stroke-width="1.5" stroke-linecap="round" stroke-linejoin="round"/>
<path id="Vector_5" d="M6.21701 5.10803C7.02154 4.43445 7.93813 3.90745 8.92501 3.55103" stroke="#323232" stroke-width="1.5" stroke-linecap="round" stroke-linejoin="round"/>
<path id="Vector_6" d="M3.14401 10.438C3.32471 9.40369 3.68588 8.40922 4.21101 7.5" stroke="#323232" stroke-width="1.5" stroke-linecap="round" stroke-linejoin="round"/>
<path id="Vector_7" d="M3.14401 13.561C3.3246 14.5957 3.68576 15.5905 4.21101 16.5" stroke="#323232" stroke-width="1.5" stroke-linecap="round" stroke-linejoin="round"/>
</g>
</g>
<defs>
<clipPath id="clip0_1_278">
<rect width="24" height="24" fill="white"/>
</clipPath>
</defs>
</svg>
