<svg width="116" height="13" viewBox="0 0 116 13" fill="none" xmlns="http://www.w3.org/2000/svg">
<g id="Capa_1" clip-path="url(#clip0_1_247)">
<path id="Vector" fill-rule="evenodd" clip-rule="evenodd" d="M108.812 12.52C112.289 12.52 115.104 9.71711 115.104 6.26C115.104 2.80289 112.289 0 108.812 0C105.336 0 102.52 2.80289 102.52 6.26C102.52 9.71711 105.336 12.52 108.812 12.52Z" fill="#00A809"/>
<path id="Vector_2" fill-rule="evenodd" clip-rule="evenodd" d="M40.4655 12.52C43.9419 12.52 46.7576 9.71711 46.7576 6.26C46.7576 2.80289 43.9419 0 40.4655 0C36.9892 0 34.1735 2.80289 34.1735 6.26C34.1735 9.71711 36.9892 12.52 40.4655 12.52Z" fill="#FF0046"/>
<path id="Vector_3" fill-rule="evenodd" clip-rule="evenodd" d="M6.29207 12.52C9.76842 12.52 12.5841 9.71711 12.5841 6.26C12.5841 2.80289 9.76842 0 6.29207 0C2.81572 0 0 2.80289 0 6.26C0 9.71711 2.81572 12.52 6.29207 12.52Z" fill="#808993"/>
<path id="Vector_4" fill-rule="evenodd" clip-rule="evenodd" d="M74.6325 12.52C78.1089 12.52 80.9246 9.71711 80.9246 6.26C80.9246 2.80289 78.1089 0 74.6325 0C71.1562 0 68.3405 2.80289 68.3405 6.26C68.3405 9.71711 71.1562 12.52 74.6325 12.52Z" fill="#0073C8"/>
</g>
<defs>
<clipPath id="clip0_1_247">
<rect width="115.104" height="12.52" fill="white"/>
</clipPath>
</defs>
</svg>
