<svg width="423" height="247" viewBox="0 0 423 247" fill="none" xmlns="http://www.w3.org/2000/svg">
<g clip-path="url(#clip0_86_313)">
<path d="M315.961 149.968L285.581 148.723L283.863 148.653L257.539 147.574L255.725 147.499L236.198 146.698L234.343 146.623L157.911 143.491L155.484 143.39L110.631 141.551C101.454 141.176 94.4516 133.223 95.2478 124.083L96.1027 114.286L96.2446 112.661L101.651 50.6309L101.81 48.8039L103.776 26.2567C103.855 25.3538 104.007 24.4737 104.227 23.6197C104.371 23.0639 104.542 22.5195 104.743 21.9915C106.928 16.1746 112.373 11.9875 118.844 11.5931L172.516 8.34648L175.184 8.1835L218.268 5.57739L220.302 5.45515L260.755 3.00714L262.527 2.89957L291.707 1.13446L293.618 1.01874L308.859 0.0978836C317.756 -0.441592 325.396 6.34178 325.908 15.2293L326.538 26.1704L326.639 27.8817L327.425 41.5365L327.526 43.2641L329.321 74.4282L329.422 76.1672L332.698 132.967C333.245 142.462 325.472 150.354 315.963 149.965L315.961 149.968Z" fill="#EEF6FC"/>
<path d="M220.306 5.45679C214.263 17.1737 206.365 27.5688 196.905 36.1531C181.897 49.7737 164.15 57.7794 145.579 59.3049C143.404 59.4826 141.262 59.5673 139.161 59.5673C124.482 59.5673 111.654 55.4569 101.65 50.6309L101.808 48.8039C113.093 54.3405 128.143 59.0165 145.437 57.5969C175.409 55.1358 202.638 35.1051 218.269 5.57902L220.304 5.45679H220.306Z" fill="white"/>
<path d="M327.525 43.2657C314.173 44.2648 294.655 48.6116 278.479 63.7837C256.833 84.0849 248.914 116.833 257.538 147.572L255.723 147.497C251.891 133.65 251.274 119.32 253.973 105.538C257.286 88.611 265.356 73.7404 277.305 62.5336C287.921 52.5786 301.065 46.0087 316.37 43.0131C319.974 42.3074 323.705 41.8119 327.424 41.5381L327.525 43.2657Z" fill="white"/>
<path d="M329.42 76.1705C319.811 78.876 309.345 84.0474 300.589 93.6944C287.146 108.51 281.969 128.837 285.579 148.721L283.861 148.651C282.819 142.603 282.556 136.44 283.108 130.284C283.739 123.234 285.433 116.432 288.136 110.073C290.9 103.576 294.663 97.6778 299.321 92.5438C308.436 82.5007 319.351 77.1793 329.319 74.433L329.42 76.1705Z" fill="white"/>
<path d="M262.528 2.90123C258.539 22.9107 244.323 70.7448 196.928 98.7763C175.988 111.16 151.904 117.66 127.068 117.66C125.866 117.66 124.667 117.645 123.461 117.614C114.248 117.381 105.087 116.26 96.1011 114.284L96.243 112.659C130.241 120.254 165.809 115.19 196.054 97.303C242.536 69.8125 256.706 23.0183 260.757 3.00717L262.528 2.8996V2.90123Z" fill="white"/>
<path d="M236.196 146.698L234.341 146.623C231.998 140.523 228.221 134.383 222.139 130.206C213.134 124.019 200.124 122.834 186.447 126.953C176.371 129.988 166.586 135.697 157.91 143.491L155.482 143.39C164.659 134.828 175.136 128.57 185.951 125.313C200.131 121.041 213.674 122.311 223.112 128.793C229.758 133.36 233.773 140.109 236.196 146.698Z" fill="white"/>
<path d="M175.185 8.18512C168.213 14.9392 158.081 22.1333 144.439 25.6814C138.719 27.1711 133.188 27.8002 127.93 27.8002C119.16 27.8002 111.14 26.0514 104.228 23.6213C104.371 23.0655 104.542 22.5212 104.743 21.9931C115.543 25.8004 129.109 27.9012 144.006 24.0255C156.373 20.8098 165.785 14.5138 172.518 8.3481L175.185 8.18512Z" fill="white"/>
<path d="M326.639 27.8833C322.642 28.4652 318.816 28.7635 315.23 28.7635C314.643 28.7635 314.062 28.7553 313.489 28.7406C301.955 28.4196 293.838 24.9806 290.635 19.0545C289.564 17.0743 289.056 14.5171 289.164 11.6583C289.283 8.47363 290.136 4.95318 291.711 1.1361L293.621 1.02039C289.345 10.8842 291.05 16.2202 292.143 18.2412C295.001 23.5268 302.798 26.731 313.538 27.0277C317.568 27.1418 321.937 26.8484 326.539 26.172L326.641 27.8833H326.639Z" fill="white"/>
<path d="M276.897 11.158H158.747C157.327 11.158 156.176 12.308 156.176 13.7266V105.209C156.176 106.628 157.327 107.778 158.747 107.778H276.897C278.317 107.778 279.468 106.628 279.468 105.209V13.7266C279.468 12.308 278.317 11.158 276.897 11.158Z" fill="white" stroke="#1C5276" stroke-width="3" stroke-miterlimit="10"/>
<path d="M194.936 34.9112H193.422C193.187 34.1843 192.889 33.4835 192.531 32.8201L193.62 31.733C194.318 31.0355 194.318 29.9076 193.62 29.21L190.541 26.1345C189.843 25.437 188.714 25.437 188.015 26.1345L186.823 27.3259C186.188 27.013 185.524 26.7539 184.834 26.5534V24.8176C184.834 23.8316 184.035 23.033 183.048 23.033H178.695C177.708 23.033 176.908 23.8316 176.908 24.8176V26.7604C176.295 26.9772 175.703 27.2379 175.137 27.5411L173.727 26.1329C173.029 25.4353 171.9 25.4353 171.201 26.1329L168.123 29.2084C167.424 29.906 167.424 31.0338 168.123 31.7314L169.637 33.2439C169.374 33.7785 169.149 34.3359 168.961 34.9096H166.805C165.817 34.9096 165.018 35.7082 165.018 36.6942V41.0426C165.018 42.0287 165.817 42.8273 166.805 42.8273H168.961C169.147 43.401 169.372 43.9568 169.637 44.493L168.123 46.0055C167.424 46.7031 167.424 47.8309 168.123 48.5285L171.201 51.604C171.9 52.3016 173.029 52.3016 173.727 51.604L175.137 50.1958C175.703 50.499 176.295 50.7614 176.908 50.9765V52.9193C176.908 53.9053 177.708 54.7039 178.695 54.7039H183.048C184.035 54.7039 184.834 53.9053 184.834 52.9193V51.1835C185.524 50.983 186.188 50.7239 186.823 50.4109L188.015 51.6024C188.714 52.2999 189.843 52.2999 190.541 51.6024L193.62 48.5269C194.318 47.8293 194.318 46.7014 193.62 46.0039L192.531 44.9168C192.889 44.2534 193.187 43.5542 193.422 42.8257H194.936C195.923 42.8257 196.723 42.0271 196.723 41.041V36.6926C196.723 35.7066 195.923 34.9079 194.936 34.9079V34.9112ZM186.545 38.9402C186.527 40.4624 185.873 41.8315 184.834 42.7915C184.821 42.8045 184.808 42.8143 184.795 42.8273C183.844 43.6911 182.578 44.2176 181.193 44.2176C181.17 44.2176 181.145 44.2176 181.122 44.2159C180.943 44.2159 180.765 44.2029 180.589 44.1833C179.44 44.0546 178.399 43.5624 177.59 42.8273C177.339 42.6008 177.112 42.3481 176.908 42.0776C176.349 41.3344 175.98 40.4429 175.872 39.4715C175.849 39.2726 175.838 39.0705 175.838 38.8684C175.838 38.6663 175.849 38.4642 175.872 38.2654C175.982 37.294 176.35 36.4009 176.908 35.6593C177.112 35.3904 177.339 35.1378 177.59 34.9096C178.399 34.1729 179.44 33.6807 180.589 33.5536C180.765 33.534 180.943 33.521 181.122 33.521C181.145 33.5193 181.17 33.5193 181.193 33.5193C182.578 33.5193 183.844 34.0458 184.795 34.9096C184.808 34.9226 184.821 34.9324 184.834 34.9454C185.873 35.907 186.529 37.2761 186.545 38.7967C186.547 38.8196 186.547 38.844 186.547 38.8668C186.547 38.8896 186.547 38.9141 186.545 38.9369V38.9402Z" fill="#E1E1E1"/>
<path d="M194.936 78.568H193.422C193.187 77.8411 192.889 77.1403 192.531 76.4769L193.62 75.3898C194.318 74.6923 194.318 73.5644 193.62 72.8668L190.541 69.7913C189.843 69.0938 188.714 69.0938 188.015 69.7913L186.823 70.9827C186.188 70.6698 185.524 70.4107 184.834 70.2102V68.4744C184.834 67.4884 184.035 66.6898 183.048 66.6898H178.695C177.708 66.6898 176.908 67.4884 176.908 68.4744V70.4172C176.295 70.634 175.703 70.8947 175.137 71.1979L173.727 69.7897C173.029 69.0921 171.9 69.0921 171.201 69.7897L168.123 72.8652C167.424 73.5628 167.424 74.6906 168.123 75.3882L169.637 76.9007C169.374 77.4353 169.149 77.9927 168.961 78.5664H166.805C165.817 78.5664 165.018 79.365 165.018 80.351V84.6994C165.018 85.6855 165.817 86.4841 166.805 86.4841H168.961C169.147 87.0578 169.372 87.6136 169.637 88.1498L168.123 89.6623C167.424 90.3599 167.424 91.4877 168.123 92.1853L171.201 95.2608C171.9 95.9584 173.029 95.9584 173.727 95.2608L175.137 93.8526C175.703 94.1557 176.295 94.4182 176.908 94.6333V96.5761C176.908 97.5621 177.708 98.3607 178.695 98.3607H183.048C184.035 98.3607 184.834 97.5621 184.834 96.5761V94.8403C185.524 94.6398 186.188 94.3807 186.823 94.0677L188.015 95.2591C188.714 95.9567 189.843 95.9567 190.541 95.2591L193.62 92.1836C194.318 91.4861 194.318 90.3582 193.62 89.6607L192.531 88.5736C192.889 87.9102 193.187 87.211 193.422 86.4825H194.936C195.923 86.4825 196.723 85.6839 196.723 84.6978V80.3494C196.723 79.3634 195.923 78.5647 194.936 78.5647V78.568ZM186.545 82.597C186.527 84.1192 185.873 85.4883 184.834 86.4483C184.821 86.4613 184.808 86.4711 184.795 86.4841C183.844 87.3479 182.578 87.8744 181.193 87.8744C181.17 87.8744 181.145 87.8744 181.122 87.8727C180.943 87.8727 180.765 87.8597 180.589 87.8401C179.44 87.7114 178.399 87.2192 177.59 86.4841C177.339 86.2576 177.112 86.0049 176.908 85.7344C176.349 84.9912 175.98 84.0997 175.872 83.1283C175.849 82.9294 175.838 82.7273 175.838 82.5252C175.838 82.3231 175.849 82.121 175.872 81.9222C175.982 80.9508 176.35 80.0577 176.908 79.3161C177.112 79.0472 177.339 78.7945 177.59 78.5664C178.399 77.8297 179.44 77.3375 180.589 77.2103C180.765 77.1908 180.943 77.1777 181.122 77.1777C181.145 77.1761 181.17 77.1761 181.193 77.1761C182.578 77.1761 183.844 77.7026 184.795 78.5664C184.808 78.5794 184.821 78.5892 184.834 78.6022C185.873 79.5638 186.529 80.9329 186.545 82.4535C186.547 82.4763 186.547 82.5008 186.547 82.5236C186.547 82.5464 186.547 82.5709 186.545 82.5937V82.597Z" fill="#E1E1E1"/>
<path d="M259.38 30.5253H211.611C210.191 30.5253 209.04 31.6749 209.04 33.0931C209.04 34.5112 210.191 35.6609 211.611 35.6609H259.38C260.8 35.6609 261.951 34.5112 261.951 33.0931C261.951 31.6749 260.8 30.5253 259.38 30.5253Z" fill="#0D9BD3"/>
<path d="M244.705 41.5463H211.718C210.298 41.5463 209.146 42.6959 209.146 44.1141C209.146 45.5322 210.298 46.6819 211.718 46.6819H244.705C246.125 46.6819 247.276 45.5322 247.276 44.1141C247.276 42.6959 246.125 41.5463 244.705 41.5463Z" fill="#0D9BD3"/>
<path d="M259.38 75.0361H211.611C210.191 75.0361 209.04 76.1858 209.04 77.6039C209.04 79.0221 210.191 80.1717 211.611 80.1717H259.38C260.8 80.1717 261.951 79.0221 261.951 77.6039C261.951 76.1858 260.8 75.0361 259.38 75.0361Z" fill="#0D9BD3"/>
<path d="M244.705 86.0571H211.718C210.298 86.0571 209.146 87.2067 209.146 88.6249C209.146 90.043 210.298 91.1927 211.718 91.1927H244.705C246.125 91.1927 247.276 90.043 247.276 88.6249C247.276 87.2067 246.125 86.0571 244.705 86.0571Z" fill="#0D9BD3"/>
<path d="M274.233 187.487C273.949 187.487 273.681 187.314 273.575 187.034C272.991 185.5 271.053 179.929 270.594 172.637C269.978 162.832 272.224 154.223 277.272 147.05C281.033 141.708 286.336 137.325 292.613 134.377C292.964 134.212 293.383 134.362 293.548 134.714C293.712 135.065 293.562 135.483 293.21 135.648C287.154 138.492 282.041 142.713 278.421 147.857C273.562 154.763 271.4 163.07 271.996 172.548C272.441 179.642 274.321 185.047 274.887 186.533C275.025 186.895 274.843 187.301 274.479 187.439C274.397 187.47 274.312 187.485 274.229 187.485L274.233 187.487Z" fill="#EEF6FC"/>
<path d="M270.345 174.895C271.759 172.447 270.375 169.003 267.253 167.203C264.131 165.402 260.453 165.926 259.039 168.374C257.624 170.822 259.008 174.266 262.13 176.067C265.252 177.867 268.93 177.343 270.345 174.895Z" fill="#EEF6FC"/>
<path d="M276.466 149.792C278.219 148.041 277.829 144.811 275.595 142.579C273.36 140.347 270.128 139.957 268.374 141.709C266.621 143.46 267.011 146.69 269.245 148.922C271.48 151.154 274.712 151.544 276.466 149.792Z" fill="#EEF6FC"/>
<path d="M290.103 133.214C290.606 130.097 289.029 127.251 286.581 126.857C284.132 126.463 281.74 128.67 281.238 131.787C280.735 134.904 282.313 137.75 284.761 138.143C287.209 138.537 289.601 136.33 290.103 133.214Z" fill="#EEF6FC"/>
<path d="M280.147 165.179C283.652 164.336 285.957 161.425 285.294 158.677C284.632 155.929 281.254 154.385 277.749 155.228C274.244 156.072 271.94 158.983 272.602 161.731C273.264 164.478 276.643 166.022 280.147 165.179Z" fill="#EEF6FC"/>
<path d="M287.79 147.932C290.619 147.932 292.913 146.135 292.913 143.918C292.913 141.701 290.619 139.904 287.79 139.904C284.961 139.904 282.667 141.701 282.667 143.918C282.667 146.135 284.961 147.932 287.79 147.932Z" fill="#EEF6FC"/>
<path d="M298.394 137C300.999 135.897 302.409 133.349 301.544 131.307C300.678 129.266 297.864 128.505 295.259 129.607C292.654 130.71 291.244 133.258 292.109 135.3C292.975 137.341 295.789 138.102 298.394 137Z" fill="#EEF6FC"/>
<path d="M256.611 187.487C256.797 187.487 256.973 187.373 257.043 187.188C257.427 186.18 258.702 182.514 259.004 177.717C259.409 171.267 257.931 165.604 254.611 160.886C252.137 157.371 248.648 154.489 244.518 152.549C244.287 152.44 244.011 152.54 243.903 152.771C243.794 153.003 243.893 153.278 244.125 153.386C248.109 155.257 251.473 158.034 253.854 161.417C257.05 165.96 258.472 171.425 258.081 177.66C257.787 182.328 256.551 185.883 256.179 186.861C256.087 187.099 256.208 187.366 256.446 187.457C256.5 187.478 256.555 187.488 256.611 187.488V187.487Z" fill="#EEF6FC"/>
<path d="M264.572 179.974C266.626 178.789 267.537 176.524 266.607 174.914C265.676 173.305 263.257 172.96 261.203 174.145C259.15 175.329 258.239 177.594 259.169 179.204C260.099 180.814 262.519 181.159 264.572 179.974Z" fill="#EEF6FC"/>
<path d="M259.891 162.116C261.36 160.648 261.617 158.524 260.464 157.372C259.311 156.22 257.184 156.476 255.714 157.945C254.245 159.413 253.988 161.537 255.141 162.689C256.294 163.841 258.421 163.585 259.891 162.116Z" fill="#EEF6FC"/>
<path d="M249.675 155.04C251.285 154.781 252.322 152.909 251.992 150.859C251.661 148.808 250.088 147.356 248.478 147.615C246.868 147.875 245.83 149.747 246.161 151.797C246.492 153.847 248.065 155.299 249.675 155.04Z" fill="#EEF6FC"/>
<path d="M257.675 170.532C258.11 168.725 256.594 166.81 254.289 166.255C251.983 165.701 249.761 166.716 249.325 168.523C248.89 170.33 250.406 172.245 252.711 172.799C255.017 173.354 257.239 172.339 257.675 170.532Z" fill="#EEF6FC"/>
<path d="M247.692 161.466C249.552 161.466 251.061 160.284 251.061 158.826C251.061 157.368 249.552 156.186 247.692 156.186C245.831 156.186 244.323 157.368 244.323 158.826C244.323 160.284 245.831 161.466 247.692 161.466Z" fill="#EEF6FC"/>
<path d="M244.84 153.124C245.409 151.781 244.482 150.105 242.769 149.38C241.056 148.655 239.205 149.155 238.636 150.498C238.066 151.841 238.994 153.517 240.707 154.242C242.42 154.967 244.271 154.467 244.84 153.124Z" fill="#EEF6FC"/>
<path d="M184.049 187.324C183.765 187.324 183.498 187.151 183.392 186.871C182.808 185.337 180.869 179.766 180.411 172.474C179.794 162.669 182.041 154.06 187.089 146.887C190.849 141.545 196.153 137.162 202.429 134.214C202.78 134.049 203.199 134.199 203.364 134.551C203.529 134.902 203.379 135.32 203.027 135.485C196.97 138.329 191.857 142.55 188.237 147.694C183.379 154.6 181.217 162.907 181.812 172.385C182.258 179.479 184.137 184.884 184.703 186.37C184.842 186.732 184.659 187.138 184.296 187.276C184.214 187.307 184.129 187.322 184.046 187.322L184.049 187.324Z" fill="#E1E1E1"/>
<path d="M180.16 174.732C181.575 172.285 180.191 168.841 177.069 167.04C173.947 165.239 170.269 165.764 168.854 168.211C167.44 170.659 168.824 174.103 171.946 175.904C175.068 177.705 178.746 177.18 180.16 174.732Z" fill="#E1E1E1"/>
<path d="M186.283 149.629C188.037 147.878 187.647 144.648 185.412 142.416C183.178 140.184 179.945 139.794 178.192 141.546C176.438 143.297 176.828 146.527 179.063 148.759C181.297 150.991 184.53 151.381 186.283 149.629Z" fill="#E1E1E1"/>
<path d="M199.923 133.052C200.426 129.935 198.848 127.089 196.4 126.695C193.952 126.301 191.56 128.509 191.058 131.625C190.555 134.742 192.133 137.588 194.581 137.982C197.029 138.375 199.421 136.168 199.923 133.052Z" fill="#E1E1E1"/>
<path d="M189.964 165.014C193.469 164.171 195.773 161.259 195.111 158.512C194.448 155.764 191.07 154.22 187.565 155.063C184.06 155.906 181.756 158.817 182.418 161.565C183.081 164.313 186.459 165.857 189.964 165.014Z" fill="#E1E1E1"/>
<path d="M197.607 147.769C200.436 147.769 202.73 145.972 202.73 143.755C202.73 141.538 200.436 139.741 197.607 139.741C194.777 139.741 192.484 141.538 192.484 143.755C192.484 145.972 194.777 147.769 197.607 147.769Z" fill="#E1E1E1"/>
<path d="M208.206 136.831C210.811 135.728 212.221 133.179 211.356 131.138C210.49 129.097 207.676 128.335 205.071 129.438C202.466 130.541 201.056 133.089 201.922 135.131C202.787 137.172 205.601 137.933 208.206 136.831Z" fill="#E1E1E1"/>
<path d="M166.426 187.324C166.612 187.324 166.788 187.21 166.858 187.025C167.242 186.016 168.518 182.351 168.819 177.554C169.224 171.103 167.746 165.441 164.426 160.723C161.953 157.208 158.463 154.326 154.334 152.386C154.102 152.277 153.826 152.377 153.718 152.608C153.609 152.84 153.709 153.115 153.94 153.223C157.924 155.094 161.289 157.871 163.669 161.254C166.865 165.797 168.288 171.262 167.896 177.497C167.602 182.165 166.366 185.72 165.994 186.698C165.902 186.936 166.023 187.203 166.261 187.294C166.315 187.315 166.371 187.325 166.426 187.325V187.324Z" fill="#E1E1E1"/>
<path d="M174.387 179.812C176.441 178.627 177.352 176.362 176.421 174.752C175.491 173.142 173.072 172.798 171.018 173.982C168.964 175.167 168.053 177.432 168.984 179.042C169.914 180.651 172.333 180.996 174.387 179.812Z" fill="#E1E1E1"/>
<path d="M169.707 161.954C171.177 160.485 171.433 158.361 170.28 157.209C169.127 156.057 167 156.313 165.531 157.782C164.061 159.25 163.804 161.374 164.957 162.526C166.11 163.678 168.237 163.422 169.707 161.954Z" fill="#E1E1E1"/>
<path d="M159.489 154.873C161.099 154.614 162.137 152.742 161.806 150.692C161.475 148.641 159.902 147.189 158.292 147.448C156.682 147.708 155.645 149.58 155.975 151.63C156.306 153.68 157.879 155.132 159.489 154.873Z" fill="#E1E1E1"/>
<path d="M167.495 170.369C167.931 168.562 166.415 166.647 164.109 166.093C161.804 165.538 159.581 166.553 159.146 168.36C158.71 170.168 160.226 172.082 162.532 172.637C164.837 173.192 167.059 172.176 167.495 170.369Z" fill="#E1E1E1"/>
<path d="M157.507 161.303C159.367 161.303 160.876 160.121 160.876 158.663C160.876 157.205 159.367 156.023 157.507 156.023C155.646 156.023 154.138 157.205 154.138 158.663C154.138 160.121 155.646 161.303 157.507 161.303Z" fill="#E1E1E1"/>
<path d="M154.663 152.964C155.233 151.621 154.305 149.945 152.592 149.22C150.879 148.495 149.028 148.995 148.459 150.338C147.89 151.681 148.817 153.357 150.53 154.082C152.243 154.807 154.094 154.307 154.663 152.964Z" fill="#E1E1E1"/>
<path d="M87.4739 187.492C103.032 165.953 116.93 160.617 126.675 159.672C148.72 157.534 157.213 177.126 186.869 177.862C207.539 178.376 208.84 168.991 228.212 171.443C251.839 174.432 255.493 189.097 273.197 187.493C290.918 185.886 295.161 170.474 311.326 170.587C324.021 170.675 334.193 180.271 340.459 187.707C256.131 187.635 171.802 187.563 87.4739 187.493L87.4739 187.492Z" fill="#E1E1E1"/>
<path d="M101.756 231.634L116.111 241.894C117.041 242.559 117.372 243.788 116.903 244.827C116.358 246.034 114.937 246.57 113.729 246.025L91.2981 235.912L95.0897 228.721L101.758 231.632L101.756 231.634Z" fill="#0C2841"/>
<path d="M99.5174 233.665L95.9649 232.225C95.0851 231.868 94.6602 230.864 95.0173 229.985L97.9488 222.769L104.691 225.503L101.76 232.718C101.403 233.597 100.397 234.022 99.5174 233.665Z" fill="#FB855F"/>
<path d="M170.958 237.938L188.555 239.317C189.696 239.407 190.614 240.287 190.75 241.421C190.906 242.735 189.968 243.928 188.652 244.084L164.215 246.998L163.744 238.885L170.958 237.937V237.938Z" fill="#0C2841"/>
<path d="M170.02 240.539L166.219 241.042C165.278 241.167 164.412 240.503 164.287 239.563L163.264 231.843L170.478 230.889L171.501 238.609C171.625 239.55 170.962 240.415 170.02 240.539Z" fill="#FB855F"/>
<path d="M150.893 62.2093C150.893 62.2093 159.85 60.3529 169.42 58.9382C180.031 57.3703 191.414 56.4869 192.579 62.2712C195.142 75.0068 152.332 74.821 152.332 74.821C145.687 73.7697 145.554 64.8725 150.893 62.2093Z" fill="#0D9BD3"/>
<path d="M165.721 59.3196C167.172 64.9539 167.744 67.3041 166.852 74.2244L144.481 74.3027L144.84 60.9445L165.721 59.3196Z" fill="#0D9BD3"/>
<path d="M208.419 32.4746C208.419 32.4746 207.608 30.6328 207.933 28.8938C208.257 27.1548 208.686 25.9976 208.035 24.1705C207.384 22.3435 209.58 21.6638 210.072 23.2855C210.561 24.9056 210.954 27.6372 212.777 26.1263C214.599 24.6155 215.072 18.8524 217.973 20.4969C217.973 20.4969 218.813 17.8973 219.859 18.2526C220.905 18.6095 220.157 20.9679 220.157 20.9679C220.157 20.9679 223.18 19.7879 220.259 25.5722C220.259 25.5722 221.686 25.7759 221.257 26.9527C220.57 28.8351 217.552 32.2708 214.568 34.2934C209.718 37.5792 208.419 32.4746 208.419 32.4746Z" fill="#EB8F90"/>
<path d="M214.721 27.1059L214.47 26.9413C217.66 22.1088 217.821 20.5018 217.823 20.4855L218.121 20.5067C218.116 20.5719 217.974 22.174 214.72 27.1059H214.721Z" fill="#D16B70"/>
<path d="M216.573 27.7904L216.335 27.6062C218.234 25.1582 220.001 20.9549 220.019 20.9125L220.296 21.0282C220.278 21.0706 218.495 25.3114 216.573 27.7904Z" fill="#D16B70"/>
<path d="M217.788 29.0927L217.553 28.9069C218.715 27.4335 220.125 25.5054 220.139 25.4858L220.382 25.6619C220.368 25.6814 218.955 27.6144 217.79 29.091L217.788 29.0927Z" fill="#D16B70"/>
<path d="M208.052 32.6212C208.052 32.6212 178.334 60.3692 185.521 67.2324C193.623 74.9709 213.674 35.3838 213.674 35.3838C213.674 35.3838 213.388 32.173 208.053 32.6212H208.052Z" fill="#0D9BD3"/>
<path d="M160.298 184.38C165.557 183.498 169.219 178.668 168.627 173.374C166.121 150.957 162.757 128.845 159.43 112.245L136.903 109.843C140.786 128.736 145.581 156.142 148.7 176.027C149.566 181.552 154.779 185.306 160.3 184.38H160.298Z" fill="#0C2841"/>
<path d="M148.176 135.299L131.786 134.202L135.232 120.249C135.232 120.249 141.482 120.699 142.986 120.859C144.491 121.019 148.178 135.299 148.178 135.299H148.176Z" fill="#0C2841"/>
<path d="M157.094 165.283C162.781 164.328 168.1 168.356 168.713 174.083C170.787 193.418 173.753 218.427 174.965 230.844L158.176 233.662C156.49 219.567 151.573 194.172 148.853 176.684C148.012 171.271 151.686 166.19 157.092 165.282L157.094 165.283Z" fill="#0C2841"/>
<path d="M122.342 180.689C127.644 181.254 132.473 177.587 133.33 172.331C136.962 150.069 139.957 127.188 141.23 110.306L119.351 107.973C117.996 127.214 115.783 149.533 113.424 169.524C112.768 175.077 116.777 180.095 122.342 180.689Z" fill="#0C2841"/>
<path d="M126.846 165.917C132.189 168.083 134.606 174.298 132.121 179.497C123.738 197.046 113.178 218.643 107.694 229.851L91.918 223.455C97.881 210.572 106.981 187.625 113.845 171.311C115.969 166.26 121.764 163.857 126.846 165.917Z" fill="#0C2841"/>
<path d="M159.45 112.247C159.45 112.247 163.68 67.8338 153.221 60.3317C147.225 56.0306 133.911 55.6052 126.639 59.8884C119.301 64.2107 119.482 107.985 119.482 107.985L159.45 112.245V112.247Z" fill="#0D9BD3"/>
<path d="M134.712 65.2864C134.712 65.2864 137.236 74.0712 139.363 83.4998C141.721 93.9536 143.455 105.227 137.768 106.82C125.246 110.325 122.231 67.6644 122.231 67.6644C122.784 60.9657 131.654 60.1687 134.712 65.2881V65.2864Z" fill="#0D9BD3"/>
<path d="M139.996 79.7642C134.214 82.887 128.06 84.1436 121.699 84.3685L120.918 70.0048C120.674 65.526 125.936 58.1917 128.235 60.7881L135.713 59.463L139.996 79.7642Z" fill="#0D9BD3"/>
<path d="M156.858 126.29C156.858 126.29 158.967 126.001 160.53 126.762C162.093 127.523 163.051 128.229 165.083 128.091C167.116 127.952 166.914 130.206 165.145 130.247C163.377 130.288 160.568 129.949 161.32 132.066C162.073 134.185 167.492 136.132 164.754 138.448C164.754 138.448 166.951 139.92 166.194 140.816C165.437 141.713 163.436 140.393 163.436 140.393C163.436 140.393 163.397 143.559 158.918 139.289C158.918 139.289 158.159 140.587 157.184 139.874C155.622 138.735 153.467 134.985 152.673 131.635C151.382 126.19 156.856 126.291 156.856 126.291L156.858 126.29Z" fill="#EB8F90"/>
<path d="M159.62 133.642L159.843 133.462C163.287 137.734 164.785 138.306 164.8 138.313L164.705 138.583C164.643 138.562 163.14 138.01 159.62 133.643V133.642Z" fill="#D16B70"/>
<path d="M158.228 135.216L158.466 135.056C160.099 137.487 163.491 140.252 163.525 140.28L163.344 140.502C163.31 140.474 159.884 137.68 158.228 135.215V135.216Z" fill="#D16B70"/>
<path d="M156.484 136.026L156.724 135.87C157.699 137.351 159.021 139.188 159.034 139.206L158.801 139.372C158.788 139.354 157.463 137.513 156.484 136.026Z" fill="#D16B70"/>
<path d="M157.194 125.872C157.194 125.872 141.148 88.8408 131.199 94.0905C119.979 100.012 152.066 130.69 152.066 130.69C152.066 130.69 155.456 131.283 157.194 125.872Z" fill="#0D9BD3"/>
<path d="M143.044 64.5872C147.675 65.0811 150.364 59.9015 149.251 58.5259C148.917 58.1119 148.684 57.5969 148.522 57.0802H148.519C148.142 55.879 148.14 54.6648 148.14 54.6648L148.137 54.6615L140.389 46.1196C140.332 51.027 137.888 54.215 136.873 56.5636C135.862 58.9122 137.776 64.0249 143.042 64.5872H143.044Z" fill="#EB8F90"/>
<path d="M141.28 52.0228C143.235 56.9759 148.377 57.0541 148.519 57.0786C148.142 55.8774 148.14 54.6648 148.14 54.6648L148.137 54.6615C147.92 54.5051 139.448 47.381 141.28 52.0228Z" fill="#D16B70"/>
<path d="M132.855 36.4872C132.855 36.4872 132.749 40.9611 138.715 46.2157C144.97 51.7262 138.841 36.1857 138.841 36.1857L132.857 36.4856L132.855 36.4872Z" fill="#0C2841"/>
<path d="M150.754 35.7032C150.754 35.7032 151.26 39.6214 151.986 44.0366C153.023 50.3473 152.638 55.32 146.388 54.6534C135.89 53.5337 138.448 36.2052 138.448 36.2052L150.754 35.7049V35.7032Z" fill="#EB8F90"/>
<path d="M141.613 38.5294C141.613 38.5294 157.394 39.8561 156.36 28.9883C155.326 18.1206 147.742 30.6459 144.541 30.3036C140.786 29.9027 130.498 29.3583 133.299 38.6891C134.027 41.1127 135.903 38.2865 141.615 38.5294H141.613Z" fill="#0C2841"/>
<path d="M143.675 67.5943C138.913 67.5943 135.296 64.2939 132.912 57.768L133.545 57.5366C135.965 64.1651 139.67 67.3074 144.558 66.882C149.847 66.4192 151.782 59.6456 151.801 59.5771L152.451 59.7564C152.369 60.0547 150.374 67.0499 144.615 67.5519C144.297 67.5796 143.982 67.5943 143.672 67.5943H143.675Z" fill="#251138"/>
<path d="M138.373 50.8053C140.133 50.8053 141.559 49.3802 141.559 47.6223C141.559 45.8643 140.133 44.4392 138.373 44.4392C136.613 44.4392 135.187 45.8643 135.187 47.6223C135.187 49.3802 136.613 50.8053 138.373 50.8053Z" fill="#EB8F90"/>
<path d="M138.335 41.3784C138.335 41.3784 139.606 45.7447 141.616 47.2621C143.626 48.7778 147.537 45.7235 152.588 47.2376C152.588 47.2376 152.41 52.9681 150.251 55.8855C150.251 55.8855 144.66 56.3745 141.817 52.4906C138.973 48.6067 137.131 44.5044 137.131 44.5044L138.334 41.3784H138.335Z" fill="#0C2841"/>
<path d="M150.567 48.8674L147.193 48.9424C147.193 48.9424 147.199 51.9266 149.054 51.8533C150.908 51.7799 150.568 48.8691 150.568 48.8691L150.567 48.8674Z" fill="white"/>
<path d="M145.938 42.3905C146.274 42.3905 146.546 42.1183 146.546 41.7825C146.546 41.4468 146.274 41.1746 145.938 41.1746C145.602 41.1746 145.329 41.4468 145.329 41.7825C145.329 42.1183 145.602 42.3905 145.938 42.3905Z" fill="#8E3332"/>
<path d="M149.796 41.9618C150.132 41.9618 150.405 41.6896 150.405 41.3539C150.405 41.0181 150.132 40.746 149.796 40.746C149.46 40.746 149.188 41.0181 149.188 41.3539C149.188 41.6896 149.46 41.9618 149.796 41.9618Z" fill="#8E3332"/>
<path d="M148.907 46.6884C148.537 46.6884 148.132 46.5873 147.734 46.3542L148.075 45.7724C148.817 46.2059 149.519 45.9745 149.723 45.6485C149.896 45.3698 149.71 45.0129 149.224 44.6934C147.721 43.709 147.677 42.0727 147.863 41.3458L148.517 41.512C148.501 41.5788 148.126 43.1679 149.594 44.1295C150.573 44.7717 150.584 45.5393 150.296 46.0022C150.043 46.4097 149.522 46.6867 148.907 46.6867V46.6884Z" fill="#8E3332"/>
<path d="M144.3 40.5993L143.718 40.2587C144.47 38.9744 145.788 39.0298 145.84 39.0347L145.803 39.7078L145.821 39.3721L145.804 39.7078C145.767 39.7078 144.837 39.6801 144.298 40.5993H144.3Z" fill="#8E3332"/>
<path d="M148.672 39.3851L148.343 38.7967C149.447 38.1774 150.756 38.6289 150.811 38.6484L150.586 39.284L150.699 38.9662L150.588 39.284C150.576 39.2808 149.508 38.9173 148.674 39.3835L148.672 39.3851Z" fill="#8E3332"/>
<path d="M158.85 71.0173L158.368 71.1035L159.041 74.8608L159.523 74.7746L158.85 71.0173Z" fill="#251138"/>
<path d="M186.844 57.6703L186.395 57.8639L187.309 59.9816L187.759 59.7879L186.844 57.6703Z" fill="#251138"/>
<path d="M129.326 101.907C126.961 98.496 125.055 93.3734 123.872 89.6769C122.593 85.6789 121.861 82.4405 121.854 82.4079L122.332 82.3003C122.339 82.3329 123.068 85.5534 124.34 89.5319C125.513 93.1957 127.399 98.2678 129.729 101.629L129.326 101.907Z" fill="#251138"/>
<path d="M141.208 98.8397L138.721 99.9686L138.924 100.414L141.41 99.2849L141.208 98.8397Z" fill="#251138"/>
<path d="M145.455 103.736L145.049 104.009L150.073 111.464L150.479 111.191L145.455 103.736Z" fill="#251138"/>
<path d="M333.818 231.634L319.462 241.894C318.532 242.559 318.201 243.788 318.671 244.827C319.216 246.034 320.637 246.57 321.844 246.025L344.275 235.912L340.484 228.721L333.816 231.632L333.818 231.634Z" fill="#0C2841"/>
<path d="M330.895 225.488L337.637 222.754L340.569 229.97C340.926 230.849 340.501 231.853 339.621 232.21L336.068 233.65C335.189 234.007 334.183 233.582 333.826 232.703L330.895 225.488Z" fill="#FB855F"/>
<path d="M264.615 237.938L247.018 239.317C245.877 239.407 244.959 240.287 244.823 241.421C244.667 242.735 245.605 243.928 246.922 244.084L271.358 246.998L271.829 238.885L264.615 237.937V237.938Z" fill="#0C2841"/>
<path d="M265.116 230.888L272.33 231.842L271.307 239.562C271.182 240.502 270.316 241.165 269.375 241.041L265.574 240.538C264.633 240.414 263.969 239.548 264.093 238.608L265.116 230.888Z" fill="#FB855F"/>
<path d="M284.682 62.2093C284.682 62.2093 275.726 60.3529 266.155 58.9382C255.544 57.3703 244.161 56.4869 242.996 62.2712C240.433 75.0068 283.243 74.821 283.243 74.821C289.888 73.7697 290.021 64.8725 284.682 62.2093Z" fill="#0C2841"/>
<path d="M269.854 59.3196C268.403 64.9539 267.831 67.3041 268.723 74.2244L291.094 74.3027L290.735 60.9445L269.854 59.3196Z" fill="#0C2841"/>
<path d="M227.155 32.4746C227.155 32.4746 227.965 30.6328 227.641 28.8938C227.316 27.1548 226.887 25.9976 227.538 24.1705C228.189 22.3435 225.993 21.6638 225.502 23.2855C225.012 24.9056 224.619 27.6372 222.797 26.1263C220.975 24.6155 220.501 18.8524 217.601 20.4969C217.601 20.4969 216.76 17.8973 215.715 18.2526C214.669 18.6095 215.416 20.9679 215.416 20.9679C215.416 20.9679 212.393 19.7879 215.315 25.5722C215.315 25.5722 213.887 25.7759 214.316 26.9527C215.003 28.8351 218.022 32.2708 221.006 34.2934C225.856 37.5792 227.155 32.4746 227.155 32.4746Z" fill="#EB8F90"/>
<path d="M220.852 27.1059L221.103 26.9413C217.914 22.1088 217.752 20.5018 217.751 20.4855L217.452 20.5067C217.457 20.5719 217.599 22.174 220.854 27.1059H220.852Z" fill="#D16B70"/>
<path d="M219 27.7904L219.239 27.6062C217.34 25.1582 215.573 20.9549 215.555 20.9125L215.277 21.0282C215.295 21.0706 217.078 25.3114 219 27.7904Z" fill="#D16B70"/>
<path d="M217.785 29.0927L218.02 28.9069C216.858 27.4335 215.449 25.5054 215.434 25.4858L215.191 25.6619C215.206 25.6814 216.618 27.6144 217.783 29.091L217.785 29.0927Z" fill="#D16B70"/>
<path d="M227.522 32.6212C227.522 32.6212 257.239 60.3692 250.052 67.2324C241.951 74.9709 221.9 35.3838 221.9 35.3838C221.9 35.3838 222.185 32.173 227.52 32.6212H227.522Z" fill="#0C2841"/>
<path d="M275.277 184.38C270.018 183.498 266.356 178.668 266.948 173.374C269.454 150.957 272.818 128.845 276.145 112.245L298.672 109.843C294.789 128.736 289.994 156.142 286.875 176.027C286.009 181.552 280.796 185.306 275.275 184.38H275.277Z" fill="#0D9BD3"/>
<path d="M287.399 135.299L303.788 134.202L300.343 120.249C300.343 120.249 294.093 120.699 292.588 120.859C291.086 121.019 287.397 135.299 287.397 135.299H287.399Z" fill="#0D9BD3"/>
<path d="M278.479 165.283C272.792 164.328 267.473 168.356 266.86 174.083C264.786 193.418 261.82 218.427 260.608 230.844L277.398 233.662C279.083 219.567 284 194.172 286.72 176.684C287.562 171.271 283.888 166.19 278.481 165.282L278.479 165.283Z" fill="#0D9BD3"/>
<path d="M313.232 180.689C307.929 181.254 303.1 177.587 302.244 172.331C298.612 150.069 295.617 127.188 294.344 110.306L316.222 107.973C317.578 127.214 319.79 149.533 322.149 169.524C322.805 175.077 318.797 180.095 313.232 180.689Z" fill="#0D9BD3"/>
<path d="M308.727 165.917C303.384 168.083 300.968 174.298 303.452 179.497C311.835 197.046 322.395 218.643 327.879 229.851L343.655 223.455C337.692 210.572 328.592 187.625 321.728 171.311C319.604 166.26 313.809 163.857 308.727 165.917Z" fill="#0D9BD3"/>
<path d="M276.124 112.247C276.124 112.247 271.893 67.8338 282.353 60.3317C288.348 56.0306 301.663 55.6052 308.934 59.8884C316.273 64.2107 316.092 107.985 316.092 107.985L276.124 112.245V112.247Z" fill="#0C2841"/>
<path d="M300.863 65.2864C300.863 65.2864 298.339 74.0712 296.212 83.4998C293.854 93.9536 292.12 105.227 297.808 106.82C310.329 110.325 313.344 67.6644 313.344 67.6644C312.791 60.9657 303.921 60.1687 300.863 65.2881V65.2864Z" fill="#0C2841"/>
<path d="M295.579 79.7642C301.361 82.887 307.515 84.1436 313.876 84.3685L314.657 70.0048C314.9 65.526 309.639 58.1917 307.34 60.7881L299.861 59.463L295.579 79.7642Z" fill="#0C2841"/>
<path d="M267.353 95.6177C267.353 95.6177 266.341 93.7466 264.804 92.935C263.267 92.1233 262.132 91.768 261.045 90.0469C259.959 88.3258 258.257 89.8187 259.267 91.2693C260.277 92.7198 262.21 94.7848 260.055 95.4286C257.898 96.0708 253.126 92.8518 252.872 96.4261C252.872 96.4261 250.385 95.5215 250.108 96.6608C249.831 97.8 252.079 98.6345 252.079 98.6345C252.079 98.6345 249.543 100.535 255.635 101.627C255.635 101.627 255.035 103.004 256.187 103.371C258.029 103.958 262.331 103.483 265.507 102.145C270.669 99.9726 267.358 95.6177 267.358 95.6177H267.353Z" fill="#EB8F90"/>
<path d="M259.781 97.7299L259.794 97.4447C254.309 97.1888 252.963 96.3185 252.95 96.3087L252.787 96.5434C252.841 96.5809 254.174 97.4675 259.781 97.7299Z" fill="#D16B70"/>
<path d="M259.331 99.7802L259.319 99.495C256.391 99.6124 252.154 98.509 252.112 98.4976L252.038 98.7746C252.081 98.786 256.36 99.9008 259.331 99.7819V99.7802Z" fill="#D16B70"/>
<path d="M259.706 101.664L259.691 101.379C257.918 101.467 255.655 101.485 255.632 101.485V101.772C255.657 101.772 257.926 101.754 259.706 101.666V101.664Z" fill="#D16B70"/>
<path d="M267.491 95.101C267.491 95.101 306.887 86.1858 308.515 97.3094C310.352 109.853 266.623 102.08 266.623 102.08C266.623 102.08 264.144 99.6955 267.491 95.101Z" fill="#0C2841"/>
<path d="M291.898 67.5943C296.661 67.5943 300.278 64.2939 302.661 57.768L302.028 57.5366C299.609 64.1651 295.904 67.3074 291.016 66.882C285.726 66.4192 283.791 59.6456 283.772 59.5771L283.123 59.7564C283.204 60.0547 285.199 67.0499 290.959 67.5519C291.277 67.5796 291.592 67.5943 291.902 67.5943H291.898Z" fill="#251138"/>
<path d="M276.639 71.0011L275.966 74.7585L276.599 74.8716L277.271 71.1141L276.639 71.0011Z" fill="#251138"/>
<path d="M248.666 57.6482L247.752 59.7658L248.342 60.0201L249.256 57.9025L248.666 57.6482Z" fill="#251138"/>
<path d="M306.311 101.951L305.782 101.586C310.239 95.1564 313.14 82.4127 313.168 82.2856L313.794 82.4257C313.765 82.5545 310.838 95.4188 306.309 101.951H306.311Z" fill="#251138"/>
<path d="M297.507 90.1398L297.241 90.7244L299.728 91.8533L299.994 91.2686L297.507 90.1398Z" fill="#251138"/>
<path d="M293.532 64.9458C288.83 65.9416 285.523 60.9087 286.518 59.3782C286.816 58.9186 287.002 58.3645 287.113 57.8185H287.117C287.378 56.544 287.25 55.3004 287.25 55.3004L287.254 55.2955L294.303 45.7104C294.879 50.7418 297.726 53.7569 299.017 56.0599C300.302 58.3645 298.879 63.8147 293.532 64.9458Z" fill="#EB8F90"/>
<path d="M294.014 51.8647C292.531 57.1552 287.26 57.7761 287.118 57.8185C287.379 56.5456 287.252 55.3004 287.252 55.3004L287.255 55.2955C287.461 55.1114 295.404 46.9068 294.016 51.8647H294.014Z" fill="#E56542"/>
<path d="M301.02 35.0285C301.02 35.0285 301.601 39.6083 296.033 45.6322C290.195 51.9478 294.845 35.3512 294.845 35.3512L301.02 35.0285Z" fill="#0C2841"/>
<path d="M282.563 36.1107C282.563 36.1107 282.459 40.1853 282.18 44.7945C281.78 51.3823 282.702 56.4446 289.046 55.1016C299.705 52.8459 295.248 35.3268 295.248 35.3268L282.563 36.1107Z" fill="#EB8F90"/>
<path d="M297.263 39.8382C299.087 40.169 298.827 44.682 295.258 45.8751C292.505 46.7943 294.453 39.3297 297.263 39.8382Z" fill="#EB8F90"/>
<path d="M289.714 43.621C290.135 43.621 290.476 43.2802 290.476 42.8599C290.476 42.4395 290.135 42.0988 289.714 42.0988C289.293 42.0988 288.952 42.4395 288.952 42.8599C288.952 43.2802 289.293 43.621 289.714 43.621Z" fill="#8E3332"/>
<path d="M284.18 43.4548C284.601 43.4548 284.942 43.114 284.942 42.6936C284.942 42.2733 284.601 41.9325 284.18 41.9325C283.759 41.9325 283.418 42.2733 283.418 42.6936C283.418 43.114 283.759 43.4548 284.18 43.4548Z" fill="#8E3332"/>
<path d="M286.273 48.504C286.019 48.504 285.797 48.3997 285.669 48.2367C285.505 48.0232 285.465 47.6483 285.903 47.2914C286.472 46.8285 286.24 46.1733 286.237 46.1668L286.638 46.0185C286.759 46.3445 286.816 47.0991 286.172 47.6223C286.108 47.6728 285.911 47.8504 286.007 47.9727C286.097 48.0884 286.384 48.1324 286.645 47.9401L286.898 48.2856C286.691 48.4372 286.47 48.5024 286.27 48.5024L286.273 48.504Z" fill="#8E3332"/>
<path d="M284.963 50.5396L288.676 50.3229C288.676 50.3229 288.573 52.7904 286.88 52.8654C285.186 52.9388 284.963 50.5396 284.963 50.5396Z" fill="white"/>
<path d="M291.596 41.1795C290.808 40.1038 289.662 40.257 289.613 40.2635L289.48 39.4176C289.549 39.4062 291.184 39.1666 292.288 40.6742L291.596 41.1795Z" fill="#8E3332"/>
<path d="M282.945 40.451L282.578 39.6768C282.645 39.6459 284.219 38.9157 285.676 39.5448L285.336 40.3304C284.232 39.8529 282.958 40.4445 282.945 40.4494V40.451Z" fill="#8E3332"/>
<path d="M290.226 46.2011C289.613 46.2011 289.012 46.0251 288.485 45.6828C287.767 45.2167 287.275 44.4995 287.097 43.6618C286.919 42.8257 287.079 41.97 287.546 41.2529C288.012 40.5358 288.732 40.0436 289.569 39.8659C290.406 39.6882 291.262 39.848 291.98 40.3141C292.698 40.7802 293.191 41.4974 293.368 42.3351C293.546 43.1712 293.386 44.0269 292.92 44.744C292.453 45.4611 291.734 45.9533 290.897 46.131C290.673 46.1783 290.448 46.2011 290.226 46.2011ZM290.239 40.2228C290.047 40.2228 289.851 40.2424 289.658 40.2848C288.932 40.438 288.311 40.865 287.906 41.486C287.502 42.1069 287.365 42.8485 287.518 43.5738C287.671 44.2991 288.099 44.92 288.72 45.3242C289.342 45.7284 290.084 45.867 290.81 45.7121C291.536 45.5589 292.158 45.1319 292.562 44.5109C292.967 43.89 293.104 43.1484 292.951 42.4231C292.797 41.6978 292.37 41.0769 291.748 40.6727C291.291 40.376 290.771 40.2228 290.241 40.2228H290.239Z" fill="#8E3332"/>
<path d="M283.206 46.1472C281.724 46.1472 280.39 45.1123 280.07 43.608C279.892 42.7719 280.052 41.9162 280.519 41.1991C280.985 40.4819 281.705 39.9897 282.542 39.8121C284.271 39.447 285.976 40.5536 286.341 42.2813C286.709 44.0089 285.599 45.7121 283.87 46.0772C283.646 46.1244 283.424 46.1472 283.204 46.1472H283.206ZM283.206 40.1706C283.015 40.1706 282.822 40.1902 282.63 40.2309C281.904 40.3841 281.282 40.8112 280.878 41.4321C280.473 42.0531 280.336 42.7947 280.489 43.5199C280.807 45.0161 282.284 45.9761 283.782 45.6583C285.279 45.3405 286.24 43.8655 285.922 42.3693C285.646 41.0654 284.49 40.169 283.206 40.169V40.1706Z" fill="#8E3332"/>
<path d="M286.104 42.7649L286.074 43.1925L287.153 43.2675L287.183 42.8399L286.104 42.7649Z" fill="#8E3332"/>
<path d="M282.649 38.6011C282.649 38.6011 289.469 40.2212 295.248 35.3268L301.02 35.0285C301.02 35.0285 298.494 30.7812 294.197 29.831C289.898 28.8808 279.853 31.5651 282.649 38.5995V38.6011Z" fill="#0C2841"/>
<path d="M302.108 38.7788C306.334 38.7788 309.76 35.3565 309.76 31.1348C309.76 26.9132 306.334 23.4909 302.108 23.4909C297.882 23.4909 294.457 26.9132 294.457 31.1348C294.457 35.3565 297.882 38.7788 302.108 38.7788Z" fill="#0C2841"/>
<path d="M280.974 92.1179L275.237 93.175L275.326 93.6559L281.063 92.5988L280.974 92.1179Z" fill="#251138"/>
<path d="M275.553 103.374L275.541 103.863L283.689 104.063L283.701 103.575L275.553 103.374Z" fill="#251138"/>
</g>
<g clip-path="url(#clip1_86_313)">
<path d="M370.498 53.2033C370.159 53.2033 369.82 53.1248 369.51 52.9679C368.985 52.7036 368.593 52.2493 368.407 51.6917C368.221 51.1342 368.266 50.5354 368.531 50.0109C368.795 49.4864 369.25 49.094 369.808 48.9082C370.366 48.7223 370.965 48.7678 371.49 49.0321C372.015 49.2964 372.408 49.7507 372.594 50.3082C372.974 51.4605 372.346 52.7077 371.192 53.0918C370.965 53.1661 370.734 53.2033 370.498 53.2033ZM370.498 49.2097C370.308 49.2097 370.118 49.2386 369.936 49.3005C369.481 49.4492 369.113 49.7672 368.898 50.1967C368.684 50.6221 368.646 51.1094 368.799 51.5637C368.948 52.018 369.266 52.3856 369.696 52.6003C370.126 52.8151 370.61 52.8523 371.064 52.6995C372.003 52.3897 372.511 51.3737 372.201 50.4404C372.052 49.9861 371.734 49.6185 371.304 49.4038C371.052 49.2757 370.775 49.2138 370.502 49.2138L370.498 49.2097Z" fill="#5899CF"/>
<path d="M372.272 55.7064L371.88 55.8359L377.924 74.118L378.316 73.9885L372.272 55.7064Z" fill="#5899CF"/>
<path d="M363.072 27.8899L362.679 28.0194L368.679 46.1682L369.072 46.0386L363.072 27.8899Z" fill="#5899CF"/>
<path d="M367.157 55.0521L355.657 70.2227L355.987 70.4721L367.486 55.3015L367.157 55.0521Z" fill="#5899CF"/>
<path d="M385.016 31.5284L373.503 46.6943L373.833 46.9439L385.345 31.778L385.016 31.5284Z" fill="#5899CF"/>
<path d="M375.349 52.1995L375.233 52.5959L393.764 57.9962L393.879 57.5997L375.349 52.1995Z" fill="#5899CF"/>
<path d="M347.237 44.0061L347.121 44.4025L365.616 49.7924L365.732 49.3959L347.237 44.0061Z" fill="#5899CF"/>
<path d="M366.16 74.0927L365.654 76.9265L366.061 76.999L366.567 74.1652L366.16 74.0927Z" fill="#5899CF"/>
<path d="M368.979 58.3198L366.806 70.4884L367.213 70.561L369.386 58.3924L368.979 58.3198Z" fill="#5899CF"/>
<path d="M373.802 31.345L371.581 43.7819L371.988 43.8545L374.209 31.4176L373.802 31.345Z" fill="#5899CF"/>
<path d="M374.934 25.0027L374.51 27.3771L374.917 27.4496L375.341 25.0753L374.934 25.0027Z" fill="#5899CF"/>
<path d="M349.022 59.582L346.001 60.8206L346.158 61.2026L349.178 59.9641L349.022 59.582Z" fill="#5899CF"/>
<path d="M363.745 53.5473L352.075 58.3322L352.232 58.7143L363.902 53.9294L363.745 53.5473Z" fill="#5899CF"/>
<path d="M388.849 43.2509L377.209 48.0233L377.366 48.4054L389.006 43.633L388.849 43.2509Z" fill="#5899CF"/>
<path d="M394.843 40.8054L392.257 41.8643L392.414 42.2465L394.999 41.1875L394.843 40.8054Z" fill="#5899CF"/>
<path d="M387.336 67.3477L387.045 67.6414L389.126 69.6974L389.417 69.4037L387.336 67.3477Z" fill="#5899CF"/>
<path d="M376.053 56.2013L375.763 56.4949L384.721 65.3462L385.011 65.0525L376.053 56.2013Z" fill="#5899CF"/>
<path d="M356.345 36.7298L356.054 37.0235L365.106 45.9677L365.397 45.674L356.345 36.7298Z" fill="#5899CF"/>
<path d="M353.17 33.5881L352.879 33.8819L353.426 34.4217L353.717 34.1279L353.17 33.5881Z" fill="#5899CF"/>
<path d="M351.876 32.3119L351.585 32.6055L353.439 34.4379L353.73 34.1443L351.876 32.3119Z" fill="#5899CF"/>
</g>
<g clip-path="url(#clip2_86_313)">
<path d="M34.1354 153.034C33.9074 153.034 33.6756 152.994 33.4437 152.909C32.2125 152.461 31.5246 150.917 31.9046 149.468C32.2847 148.022 33.5957 147.208 34.827 147.655C36.0583 148.103 36.7461 149.647 36.3661 151.096C36.0545 152.273 35.131 153.03 34.1354 153.03V153.034ZM34.1354 147.982C33.3031 147.982 32.5279 148.617 32.2657 149.602C31.9464 150.815 32.5241 152.108 33.5539 152.484C34.5838 152.86 35.6821 152.179 36.0013 150.967C36.3205 149.754 35.7429 148.461 34.713 148.085C34.5192 148.013 34.3254 147.982 34.1354 147.982Z" fill="#1D2C42"/>
<path d="M32.3521 156.33L26.2283 179.525L26.5912 179.658L32.715 156.463L32.3521 156.33Z" fill="#1D2C42"/>
<path d="M41.6817 120.916L35.603 143.94L35.9659 144.073L42.0446 121.049L41.6817 120.916Z" fill="#1D2C42"/>
<path d="M9.31616 159.626L9.20215 159.201L9.38456 159.133L28.6707 152.054L28.7809 152.484L28.6023 152.551L9.31616 159.626Z" fill="#1D2C42"/>
<path d="M39.604 148.514L39.49 148.085L39.6724 148.018L58.9585 140.938L59.0688 141.368L58.8901 141.435L39.604 148.514Z" fill="#1D2C42"/>
<path d="M37.622 155.134L37.3235 155.411L50.1089 174.529L50.4075 174.253L37.622 155.134Z" fill="#1D2C42"/>
<path d="M18.1645 126.04L17.866 126.317L30.6256 145.397L30.9241 145.12L18.1645 126.04Z" fill="#1D2C42"/>
<path d="M15.9234 170.94L13.7583 173.434L14.024 173.754L16.1891 171.26L15.9234 170.94Z" fill="#1D2C42"/>
<path d="M28.235 156.764L18.7869 167.647L19.0526 167.967L28.5008 157.084L28.235 156.764Z" fill="#1D2C42"/>
<path d="M49.2983 132.513L39.6355 143.644L39.9012 143.964L49.564 132.833L49.2983 132.513Z" fill="#1D2C42"/>
<path d="M54.2465 126.81L52.4373 128.894L52.703 129.214L54.5122 127.13L54.2465 126.81Z" fill="#1D2C42"/>
<path d="M6.61333 142.448L6.52661 142.884L9.87508 143.808L9.9618 143.372L6.61333 142.448Z" fill="#1D2C42"/>
<path d="M13.4752 144.349L13.3884 144.784L26.5154 148.41L26.6022 147.974L13.4752 144.349Z" fill="#1D2C42"/>
<path d="M41.8841 152.196L41.7974 152.632L54.891 156.248L54.9778 155.812L41.8841 152.196Z" fill="#1D2C42"/>
<path d="M58.8875 156.89L58.8008 157.326L61.6609 158.115L61.7476 157.68L58.8875 156.89Z" fill="#1D2C42"/>
<path d="M38.6225 179.53L38.248 179.606L38.7725 183.178L39.147 183.102L38.6225 179.53Z" fill="#1D2C42"/>
<path d="M35.7221 159.761L35.3477 159.838L37.6424 175.465L38.0168 175.389L35.7221 159.761Z" fill="#1D2C42"/>
<path d="M30.6506 125.227L30.2761 125.303L32.5948 141.093L32.9692 141.017L30.6506 125.227Z" fill="#1D2C42"/>
<path d="M29.8327 119.658L29.4583 119.734L29.5883 120.621L29.9627 120.544L29.8327 119.658Z" fill="#1D2C42"/>
<path d="M29.4995 117.389L29.125 117.465L29.5917 120.64L29.9661 120.563L29.4995 117.389Z" fill="#1D2C42"/>
</g>
<g clip-path="url(#clip3_86_313)">
<path d="M388.452 107.998C387.802 107.998 387.18 107.661 386.576 107.288C385.981 106.924 385.405 106.496 384.782 106.178C383.529 105.531 382.751 105.968 382.604 107.379C382.559 107.816 382.577 108.253 382.577 108.69C382.577 109.309 382.549 109.918 382.403 110.519C381.982 112.258 380.554 113.013 378.88 112.385C378.257 112.148 377.726 111.748 377.159 111.411C376.39 110.947 375.64 110.119 374.651 110.61C373.645 111.111 373.91 112.194 373.892 113.095C373.883 113.796 373.855 114.497 373.691 115.179C373.315 116.772 371.924 117.537 370.35 117.036C369.627 116.799 369.023 116.353 368.392 115.953C367.733 115.525 367.101 115.006 366.241 115.07C365.857 115.097 365.71 114.815 365.564 114.542C365.353 114.151 365.408 113.878 365.902 113.787C366.625 113.668 367.312 113.768 367.943 114.123C368.483 114.424 368.987 114.779 369.517 115.097C369.893 115.325 370.268 115.571 370.67 115.725C371.54 116.062 372.126 115.753 372.382 114.861C372.528 114.351 372.556 113.823 372.556 113.295C372.556 112.722 372.537 112.148 372.601 111.584C372.867 109.509 374.56 108.571 376.454 109.454C377.086 109.745 377.653 110.182 378.257 110.537C378.934 110.938 379.603 111.557 380.435 111.12C381.259 110.692 381.177 109.8 381.213 109.017C381.25 108.408 381.195 107.789 381.259 107.179C381.488 104.885 383.272 103.902 385.322 104.958C386.064 105.34 386.732 105.859 387.455 106.269C388.882 107.079 389.733 106.642 389.871 105.022C389.926 104.321 389.88 103.62 389.907 102.919C389.935 102.164 390.1 101.435 390.594 100.835C390.777 100.607 390.996 100.243 391.317 100.398C391.674 100.571 391.994 101.09 391.783 101.381C390.923 102.582 391.335 103.929 391.198 105.213C390.996 107.06 390.045 108.053 388.416 107.989L388.452 107.998Z" fill="#5899CF"/>
<path d="M419.348 89.0843C419.312 89.1844 419.257 89.3483 419.193 89.5121C418.753 90.5588 418.278 91.5873 417.875 92.6522C417.664 93.1983 417.39 93.2894 416.877 93.0709C415.797 92.5976 414.708 92.1243 413.61 91.6874C413.153 91.5054 413.006 91.287 413.226 90.8046C413.711 89.7305 414.159 88.6383 414.599 87.5461C414.791 87.0637 415.029 86.8544 415.578 87.1092C416.658 87.6007 417.756 88.0285 418.845 88.4927C419.074 88.5928 419.367 88.6656 419.348 89.0843Z" fill="#5899CF"/>
<path d="M348.157 133.765C349.951 133.783 351.324 135.203 351.278 136.987C351.232 138.717 349.878 140.009 348.112 140.009C346.3 140.009 344.963 138.635 345.009 136.805C345.046 135.076 346.428 133.756 348.167 133.765H348.157ZM349.942 136.851C349.915 135.84 349.054 135.049 348.048 135.094C347.068 135.14 346.327 135.904 346.318 136.878C346.318 137.916 347.087 138.698 348.139 138.689C349.164 138.689 349.969 137.87 349.942 136.851Z" fill="#5899CF"/>
<path d="M415.221 133.219C415.569 132.737 415.871 132.191 416.292 131.754C417.417 130.571 419.037 130.634 420.108 131.863C420.63 132.464 420.941 133.201 421.316 133.893C421.664 134.548 421.929 135.267 422.689 135.586C423.073 135.749 422.982 136.068 422.991 136.368C423 136.823 422.817 136.996 422.341 136.869C421.664 136.678 421.188 136.223 420.813 135.677C420.465 135.167 420.209 134.612 419.907 134.075C419.669 133.656 419.458 133.219 419.165 132.837C418.58 132.063 417.811 132.018 417.18 132.764C416.731 133.292 416.383 133.92 416.008 134.512C415.752 134.921 415.523 135.34 415.184 135.695C413.857 137.087 412.174 136.996 411.03 135.44C410.691 134.985 410.453 134.457 410.169 133.966C409.931 133.547 409.739 133.101 409.465 132.709C408.778 131.736 407.945 131.69 407.204 132.618C406.774 133.165 406.445 133.802 406.088 134.402C405.639 135.176 405.09 135.85 404.239 136.205C403.964 136.314 403.589 136.514 403.397 136.232C403.177 135.913 403.141 135.313 403.479 135.158C404.788 134.566 405.081 133.228 405.831 132.236C405.987 132.027 406.133 131.799 406.307 131.608C407.524 130.252 409.254 130.297 410.398 131.726C410.92 132.382 411.231 133.165 411.634 133.893C411.99 134.539 412.302 135.322 413.199 135.322C414.068 135.322 414.425 134.566 414.809 133.938C414.946 133.711 415.075 133.483 415.221 133.237V133.219Z" fill="#5899CF"/>
</g>
<g clip-path="url(#clip4_86_313)">
<path d="M52.4765 41.3746C52.8213 41.3746 53.1753 41.3654 53.5202 41.3562C53.9286 41.3562 54.3007 41.3195 54.3279 41.9255C54.3552 42.5499 54.0194 42.6693 53.5202 42.6785C52.8667 42.6877 52.2133 42.706 51.5598 42.7336C51.3148 42.7427 50.9517 42.6509 50.8519 42.8988C50.7067 43.2478 51.106 43.4039 51.2966 43.6059C51.7867 44.1109 52.2859 44.6067 52.8213 45.0658C53.2479 45.4423 53.0845 45.7086 52.785 46.0483C52.4674 46.4064 52.2223 46.3513 51.9228 46.0483C51.3238 45.4607 50.7248 44.8914 50.1077 44.3312C49.7628 44.0191 49.545 44.1568 49.545 44.5884C49.545 45.3872 49.5813 46.1769 49.6085 46.9757C49.6267 47.4256 49.5268 47.747 48.9823 47.7745C48.4468 47.8021 48.3016 47.5358 48.2925 47.0583C48.2744 46.2595 48.229 45.4698 48.1927 44.671C48.1927 44.5057 48.1927 44.3129 47.993 44.2302C47.7843 44.1476 47.6663 44.3221 47.5574 44.4414C46.9856 45.0475 46.4047 45.6535 45.8511 46.2779C45.5335 46.6268 45.2793 46.5625 44.9798 46.2503C44.7076 45.9657 44.5351 45.7178 44.88 45.3596C45.4881 44.7261 46.078 44.0742 46.6679 43.4222C46.7496 43.3304 46.8585 43.1835 46.8404 43.0825C46.8041 42.8713 46.6044 42.8713 46.432 42.8713C45.6061 42.8897 44.7711 42.8988 43.9452 42.9264C43.5368 42.9356 43.2917 42.8437 43.2645 42.3571C43.2463 41.8704 43.3825 41.6133 43.8998 41.6042C44.7257 41.6042 45.5607 41.5674 46.3866 41.5399C46.5499 41.5399 46.7678 41.5399 46.7859 41.3195C46.7859 41.2185 46.6861 41.09 46.5953 40.9981C45.9963 40.4105 45.4064 39.832 44.7892 39.2627C44.4534 38.9505 44.3264 38.7026 44.6985 38.2894C45.1069 37.8211 45.3882 37.9405 45.7513 38.3262C46.3049 38.8954 46.8858 39.428 47.4666 39.9606C47.5846 40.0708 47.7026 40.2728 47.9022 40.1442C48.0747 40.034 48.0293 39.8412 48.0202 39.6667C48.0021 38.8679 47.993 38.0782 47.9567 37.2794C47.9295 36.7927 48.0838 36.5356 48.592 36.4897C49.1456 36.4346 49.2545 36.756 49.2636 37.2059C49.2818 38.0415 49.309 38.8863 49.3453 39.7218C49.3453 39.8412 49.3725 40.0065 49.4542 40.0708C49.6357 40.2177 49.7719 40.0524 49.8899 39.9238C50.4616 39.3178 51.0425 38.7118 51.5961 38.0874C51.9047 37.7385 52.1679 37.6099 52.5672 38.0048C52.9212 38.3629 52.9575 38.62 52.5944 38.9873C51.9773 39.6116 51.3874 40.2636 50.8065 40.9247C50.5524 41.2093 50.6431 41.393 51.0243 41.4022C51.5054 41.4022 51.9864 41.393 52.4674 41.3838C52.4674 41.3746 52.4674 41.3654 52.4674 41.3471L52.4765 41.3746Z" fill="#5899CF"/>
<path d="M93 25.3151C92.9365 25.4436 92.8729 25.6089 92.7912 25.7558C91.8292 27.5372 90.849 29.3001 89.9051 31.0906C89.6147 31.6508 89.3061 31.7609 88.7797 31.4028C87.9266 30.8152 86.8738 30.5489 86.1387 29.7592C86.4563 28.841 87.0009 28.0422 87.4456 27.1882C88.0446 26.0588 88.689 24.957 89.2608 23.8184C89.533 23.2858 89.8053 23.2399 90.2863 23.5246C91.0396 23.9745 91.8111 24.3785 92.5734 24.8101C92.7549 24.9111 92.9728 24.9937 93 25.3059V25.3151Z" fill="#5899CF"/>
<path d="M59.4103 0.569275C60.8715 1.58849 61.2073 3.55346 60.1636 5.01342C59.1562 6.43664 57.3229 6.74884 55.8707 5.74799C54.3823 4.71959 54.0556 2.82807 55.1174 1.32221C56.1158 -0.101019 57.9854 -0.431575 59.4103 0.569275ZM59.1471 4.1503C59.6917 3.29636 59.4285 2.1486 58.5753 1.61604C57.7494 1.10184 56.7057 1.32221 56.1612 2.13023C55.5712 2.99335 55.78 4.08602 56.6331 4.6645C57.4772 5.24297 58.5935 5.01342 59.138 4.14112L59.1471 4.1503Z" fill="#5899CF"/>
</g>
<path d="M76.4569 94.8267C76.4569 95.5437 76.1385 96.2304 75.7856 96.8969C75.4414 97.5533 75.0369 98.1895 74.7357 98.8762C74.1246 100.26 74.5377 101.118 75.8717 101.28C76.2848 101.33 76.6979 101.31 77.111 101.31C77.6962 101.31 78.2728 101.34 78.8409 101.502C80.4846 101.966 81.199 103.542 80.6051 105.39C80.3814 106.076 80.0027 106.662 79.6843 107.288C79.2453 108.136 78.4622 108.964 78.9269 110.055C79.4003 111.166 80.4244 110.873 81.2764 110.893C81.9391 110.903 82.6018 110.934 83.2472 111.115C84.7533 111.529 85.4762 113.064 85.0029 114.801C84.7791 115.599 84.3574 116.265 83.9788 116.962C83.5743 117.689 83.0837 118.386 83.144 119.335C83.1698 119.759 82.903 119.921 82.6448 120.083C82.2747 120.315 82.0165 120.254 81.9305 119.709C81.8186 118.911 81.9133 118.154 82.2489 117.457C82.5329 116.861 82.8686 116.306 83.1698 115.72C83.3849 115.306 83.6173 114.892 83.7636 114.448C84.082 113.488 83.7894 112.842 82.946 112.559C82.4641 112.398 81.9649 112.368 81.4658 112.368C80.9236 112.368 80.3814 112.388 79.8478 112.317C77.8856 112.024 76.9991 110.156 77.8339 108.066C78.1093 107.369 78.5224 106.743 78.8581 106.076C79.2367 105.329 79.822 104.592 79.4089 103.673C79.0044 102.764 78.161 102.855 77.4208 102.815C76.8442 102.774 76.259 102.835 75.6824 102.764C73.5136 102.501 72.5841 100.542 73.5825 98.2804C73.9439 97.4624 74.4345 96.7252 74.8217 95.9275C75.5877 94.3521 75.1746 93.413 73.6427 93.2615C72.98 93.2009 72.3173 93.2514 71.6547 93.2211C70.9403 93.1908 70.2518 93.0091 69.6838 92.4637C69.4687 92.2618 69.1244 92.0194 69.2707 91.666C69.4343 91.2721 69.9248 90.9187 70.2002 91.151C71.3362 92.1002 72.61 91.6458 73.8234 91.7973C75.5705 92.0194 76.5086 93.0696 76.4483 94.8671L76.4569 94.8267Z" fill="#5899CF"/>
<defs>
<clipPath id="clip0_86_313">
<rect width="259.198" height="246.932" fill="white" transform="translate(87.4739 0.0685425)"/>
</clipPath>
<clipPath id="clip1_86_313">
<rect width="49" height="52" fill="white" transform="translate(346 25)"/>
</clipPath>
<clipPath id="clip2_86_313">
<rect width="55.2211" height="65.7859" fill="white" transform="translate(6.52686 117.391)"/>
</clipPath>
<clipPath id="clip3_86_313">
<rect width="78" height="53" fill="white" transform="translate(345 87)"/>
</clipPath>
<clipPath id="clip4_86_313">
<rect width="93" height="54" fill="white"/>
</clipPath>
</defs>
</svg>
